<?xml version="1.0" encoding="utf-8"?>
<!-- Generator: Adobe Illustrator 19.1.0, SVG Export Plug-In . SVG Version: 6.00 Build 0)  -->
<svg version="1.1" id="Layer_1" xmlns="http://www.w3.org/2000/svg" xmlns:xlink="http://www.w3.org/1999/xlink" x="0px" y="0px"
	 width="658.5px" height="199.5px" viewBox="0 0 658.5 199.5" style="enable-background:new 0 0 658.5 199.5;" xml:space="preserve"
	>
<style type="text/css">
	.st0{fill:#EF4130;}
	.st1{fill:#CBDB2A;}
	.st2{fill:#00A5E3;}
	.st3{fill:#231F20;}
	.st4{font-family:'HelveticaNeue-Medium';}
	.st5{font-size:14px;}
</style>
<path class="st0" d="M43.1,96.2c3.4,0,5.7-1,5.8-4.4c0.1-2.1-1.4-4.8-7.5-4.8c-6.1,0-11.2,2.2-14.4,6c-3.1,3.7-4,8.3-4.3,12.9h-0.5
	c-3.5,0-5.8,1.5-5.8,4.6c0,2.8,2.2,4.4,5.4,4.4h0.8v41.3c0,3.4,1.7,5.1,5.1,5.1c3.3,0,4.9-1.7,4.9-5.1V115H43c3.6,0,5.8-1.6,5.8-4.5
	c0-3.1-2-4.5-5.4-4.5H32.6c0.1-2.5,0.5-4.5,1.8-6.4C36.3,96.7,39.1,96.2,43.1,96.2"/>
<path class="st0" d="M201.7,110.1c0-3.4-1.6-5.1-4.9-5.1c-3.4,0-5.1,1.7-5.1,5.1v46.2c0,3.4,1.7,5.1,5.1,5.1c3.2,0,4.9-1.7,4.9-5.1
	V110.1z"/>
<path class="st0" d="M282.7,105.2h-5.3c-3.7,0-6.1,1.8-6.1,4.9c0,3.8,2.5,5,6.8,5c1.3,0,1.9-0.1,4.1-0.1c10.8,0,14.7,4.7,14.7,11.7
	c0,1.3,0,2.5,0,2.5s-3.8-6.7-16.4-6.7c-14.9,0-21.1,8.9-21.1,18.5c0,12,7.1,19.3,22.9,19.7c13.7,0.4,24.2,0.1,24.2,0.1v-32.2
	C306.5,112.4,299.4,105.2,282.7,105.2 M285.4,151.3c-10.3-0.4-16-2.7-16-10.6c0-7.3,6.1-9.5,11.6-9.5c8,0,15.6,3.2,15.6,12.2
	c0,6.6,0,7.7,0,7.7S291.2,151.6,285.4,151.3"/>
<path class="st0" d="M68.8,105.2h-5.3c-3.7,0-6.1,1.8-6.1,4.9c0,3.8,2.5,5,6.8,5c1.3,0,1.9-0.1,4.1-0.1c10.8,0,14.7,4.7,14.7,11.7
	c0,1.3,0,2.5,0,2.5s-3.8-6.7-16.4-6.7c-14.8,0-21.1,8.9-21.1,18.5c0,12,7.1,19.3,22.9,19.7c13.7,0.4,24.2,0.1,24.2,0.1v-32.2
	C92.5,112.4,85.4,105.2,68.8,105.2 M71.4,151.3c-10.3-0.4-16-2.7-16-10.6c0-7.3,6.1-9.5,11.6-9.5c8,0,15.6,3.2,15.6,12.2
	c0,6.6,0,7.7,0,7.7S77.2,151.6,71.4,151.3"/>
<path class="st0" d="M254.2,105.2c0,0-17,0-18.1,0c-17.3,0-27.9,9.5-27.9,27.8c0,19.4,10.5,26.4,21.4,26.4c10.8,0,15.2-5.8,15.2-5.8
	s-0.8,8.1-6.5,13.5c-3.6,3.5-6.5,4.4-9.6,5.7c-2.8,1.2-4.1,3.9-2.7,6.5c1.2,2.4,4.6,2.5,7.9,1.5c3.4-1,9.3-3.8,14.2-10.8
	c4.4-6.3,6.1-13.3,6.1-22.9L254.2,105.2z M231.9,149.8c-8.8,0-13.4-5.5-13.4-17.2c0-11.7,5.5-17.6,16-17.9c5.8-0.1,9.8,0.4,9.8,0.4
	v25.2C244.2,145,241.5,149.8,231.9,149.8"/>
<path class="st0" d="M133.5,109.2c-0.3-2.8-2.9-4.2-6.7-3.9c-3.4,0.2-7.5,2.2-10.6,4.8c-3.7,3.1-6,6.3-6,6.3v-6.1
	c0-3.4-1.6-5.1-4.9-5.1c-3.4,0-5.1,1.7-5.1,5.1v46.2c0,3.4,1.7,5.1,5.1,5.1c3.2,0,4.9-1.7,4.9-5.1v-19.6c0-3.5,0.2-9.5,5.5-15.3
	c3.9-4.2,7.9-6,12-6.7C132.3,114.1,133.8,111.7,133.5,109.2"/>
<path class="st0" d="M183.3,153.4c-0.9-1.2-17.2-21.3-17.2-21.3s14.4-17.7,15.3-19c1.9-2.6,1.4-5.2-0.6-6.8
	c-2.4-1.9-5.2-1.2-7.3,1.4c-0.8,1-13.3,17-13.3,17l-13.2-17c-2-2.5-4.7-3.4-7.1-1.6c-2,1.6-2.5,4.2-0.8,6.9l15.4,18.9
	c0,0-16.5,20.3-17.4,21.5c-1.9,2.6-1.1,5.2,0.3,6.6c2.2,2,5.3,1.6,7.5-1.2c1-1.2,15.3-19.5,15.3-19.5s14.2,18.2,15.1,19.4
	c2.2,2.8,5.4,3.2,7.5,1.2C184.4,158.6,185.2,156,183.3,153.4"/>
<g>
	<g>
		<path class="st1" d="M146.6,73.9c-4.4,0-7.9-3.5-7.9-7.9V40.6H164c4.3,0,7.8,3.6,7.8,8v25.3H146.6L146.6,73.9z M166.2,68.2V48.6
			c0-1.3-1-2.4-2.2-2.4h-19.7V66c0,1.2,1,2.2,2.2,2.2H166.2L166.2,68.2z"/>
	</g>
</g>
<path class="st2" d="M216.7,85.5c-5.8,0-10.5-4.7-10.5-10.4V38h37.1c5.8,0,10.5,4.7,10.5,10.5v37H216.7L216.7,85.5z M248.1,79.8
	V48.5c0-2.7-2.2-4.9-4.9-4.9h-31.4v31.4c0,2.7,2.1,4.8,4.9,4.8H248.1L248.1,79.8z"/>
<g>
	<g>
		<path class="st0" d="M193.5,93.9V61.4h-34.2c-6.2,0-11.2-5-11.2-11.1V10.2H188c6,0,11.2,5.2,11.2,11.4v34.1h30.5v5.7h-30.5v32.5
			H193.5L193.5,93.9z M193.5,55.7V21.6c0-3.1-2.5-5.7-5.5-5.7h-34.2v34.4c0,3,2.5,5.5,5.5,5.5H193.5L193.5,55.7z"/>
	</g>
</g>
<path class="st0" d="M196.4,97.7L196.4,97.7c-0.7,0-1.3-0.3-1.8-0.7l-8.7-8.7l3.6-3.6l6.9,6.9l6.9-6.9l3.6,3.6l-8.7,8.7
	C197.7,97.5,197,97.7,196.4,97.7z"/>
<g>
	<g>
		<path class="st3" d="M337.2,113.8c-4.2,8.8-5.7,19.4-5.7,29.6c0,10.7,1.9,20.2,5.7,29.6h-2.5c-4.9-8.5-7.5-19.2-7.5-29.6
			c0-10.5,2.6-21,7.5-29.6H337.2z"/>
		<path class="st3" d="M355.4,160.9h-4.1v-4.4h-0.1c-0.6,2.6-3,5.3-6,5.3c-6.6,0-9-7.5-9-18.6c0-7.4,0.9-18.6,8.7-18.6
			c2.5,0,5.1,1.9,6.1,4.9h0.1v-15.8h4.3V160.9z M345.7,157.1c4.8,0,5.6-5.8,5.6-13.9c0-6.9-0.9-13.9-5.6-13.9c-4,0-5.1,5.4-5.1,13.9
			C340.6,151.7,341.7,157.1,345.7,157.1z"/>
		<path class="st3" d="M360.4,136.2c0-8,2.7-11.6,9.3-11.6c8.4,0,8.4,6.5,8.4,10.2v19.7c0,1.4,0,2.8,1.3,2.8c0.6,0,0.8-0.1,1-0.3v4
			c-0.3,0.1-1.4,0.3-2.5,0.3c-1.7,0-3.7,0-3.9-4.6h-0.1c-1.4,3.2-4.1,5.1-6.7,5.1c-5.2,0-7.5-4-7.5-10.3c0-4.9,1.7-8.4,5.2-9.8
			l5.8-2.2c3.2-1.3,3.2-2.4,3.2-5.3c0-3.3-1.5-5.2-4.4-5.2c-4.8,0-4.8,5.7-4.8,6.9v0.3H360.4z M373.8,141.6
			c-1.6,2.2-5.4,2.6-7.4,4.2c-1.4,1.1-2.1,2.5-2.1,5.6c0,3.6,1,6.1,3.9,6.1c2.8,0,5.6-3.1,5.6-6.7V141.6z"/>
		<path class="st3" d="M384.5,125.5h4.1v4.4h0.1c0.6-2.6,3-5.3,6-5.3c6.6,0,9,7.5,9,17.9c0,8-1.9,19.3-9,19.3
			c-2.5,0-4.8-1.9-5.8-4.9h-0.1v15.6h-4.3V125.5z M394.1,157.1c4,0,5.1-5.4,5.1-14.5c0-7.8-1-13.2-5.1-13.2c-4.8,0-5.6,5.8-5.6,13.9
			C388.6,150.1,389.5,157.1,394.1,157.1z"/>
		<path class="st3" d="M407.7,136.2c0-8,2.7-11.6,9.3-11.6c8.4,0,8.4,6.5,8.4,10.2v19.7c0,1.4,0,2.8,1.3,2.8c0.6,0,0.8-0.1,1-0.3v4
			c-0.3,0.1-1.4,0.3-2.5,0.3c-1.7,0-3.7,0-3.9-4.6h-0.1c-1.4,3.2-4.1,5.1-6.7,5.1c-5.2,0-7.5-4-7.5-10.3c0-4.9,1.7-8.4,5.2-9.8
			l5.8-2.2c3.2-1.3,3.2-2.4,3.2-5.3c0-3.3-1.5-5.2-4.4-5.2c-4.8,0-4.8,5.7-4.8,6.9v0.3H407.7z M421.1,141.6
			c-1.6,2.2-5.4,2.6-7.4,4.2c-1.4,1.1-2.1,2.5-2.1,5.6c0,3.6,1,6.1,3.9,6.1c2.8,0,5.6-3.1,5.6-6.7V141.6z"/>
		<path class="st3" d="M450.1,158.6c0,10.6-3.8,14.4-9.4,14.4c-1.7,0-8.4,0-9.1-8.8h4.3c0.2,3.2,2.2,4.5,4.4,4.5
			c5.6,0,5.4-5.5,5.4-7.9v-4.6h-0.1c-0.9,3-3.5,4.7-6.2,4.7c-8.1,0-8.6-13-8.6-17.7c0-9.6,2-18.6,9-18.6c3,0,5.4,2.6,6,5.4h0.1v-4.5
			h4.1V158.6z M435.4,143.2c0,5.7,0.7,12.9,5,12.9c4.7,0,5.6-5.7,5.6-12.9c0-6.9-0.9-13.9-5.6-13.9
			C436.4,129.4,435.4,134.8,435.4,143.2z"/>
		<path class="st3" d="M456,113.8h4.3v47.1H456V113.8z"/>
		<path class="st3" d="M466.6,113.8h4.3v6.3h-4.3V113.8z M466.6,125.5h4.3v35.4h-4.3V125.5z"/>
		<path class="st3" d="M478.1,129.9h-4v-4.4h4v-4.2c0-5.3,1.8-8.1,6-8.1h3.2v4.8h-2c-1.9,0-2.8,0.9-2.8,3.4v4.2h4.8v4.4h-4.8v31
			h-4.3V129.9z"/>
		<path class="st3" d="M491.5,113.8h4.3v47.1h-4.3V113.8z"/>
		<path class="st3" d="M510.4,124.6c8,0,10,8.6,10,18.6c0,10-2,18.6-10,18.6c-8,0-10-8.6-10-18.6
			C500.4,133.3,502.5,124.6,510.4,124.6z M515.8,143.2c0-7.7-0.9-14.2-5.5-14.2c-4.4,0-5.3,6.6-5.3,14.2c0,7.7,0.9,14.3,5.3,14.3
			C514.9,157.5,515.8,150.9,515.8,143.2z"/>
		<path class="st3" d="M523.9,125.5h16.7v4.6l-12.4,26h12.3v4.7h-17.2v-4.4l12.5-26.3h-11.9V125.5z"/>
		<path class="st3" d="M545.1,113.8h4.3v6.3h-4.3V113.8z M545.1,125.5h4.3v35.4h-4.3V125.5z"/>
		<path class="st3" d="M555.4,125.5h4.1v4.2h0.1c1.1-3.2,4-5.1,6.7-5.1c7.3,0,7.3,7.1,7.3,11.2v25.1h-4.3v-24.4
			c0-2.7-0.2-7.1-4.1-7.1c-2.3,0-5.5,2-5.5,7.1v24.4h-4.3V125.5z"/>
		<path class="st3" d="M576.7,173c4.2-8.8,5.7-19.4,5.7-29.6c0-10.7-1.9-20.2-5.7-29.6h2.5c4.9,8.5,7.5,19.2,7.5,29.6
			c0,10.5-2.6,21-7.5,29.6H576.7z"/>
	</g>
	<g>
		<path class="st3" d="M592.7,142.7h1.8v4h2v1.7h-2v8.9c0,1.1,0.2,1.6,1.2,1.6c0.4,0,0.6-0.1,0.8-0.1v1.8c-0.2,0.1-0.7,0.2-1.5,0.2
			c-1.9,0-2.4-0.9-2.4-2.7v-9.6H591v-1.7h1.7V142.7z"/>
		<path class="st3" d="M597.6,150.9c0-3.2,1.1-4.6,3.9-4.6c3.6,0,3.6,2.5,3.6,4v7.7c0,0.6,0,1.1,0.6,1.1c0.2,0,0.3,0,0.4-0.1v1.6
			c-0.1,0-0.6,0.1-1.1,0.1c-0.7,0-1.6,0-1.7-1.8h0c-0.6,1.2-1.7,2-2.8,2c-2.2,0-3.2-1.6-3.2-4c0-1.9,0.7-3.3,2.2-3.8l2.5-0.9
			c1.3-0.5,1.3-0.9,1.3-2.1c0-1.3-0.7-2-1.9-2c-2,0-2,2.2-2,2.7v0.1H597.6z M603.3,153.1c-0.7,0.9-2.3,1-3.1,1.6
			c-0.6,0.4-0.9,1-0.9,2.2c0,1.4,0.4,2.4,1.7,2.4c1.2,0,2.4-1.2,2.4-2.6V153.1z"/>
		<path class="st3" d="M607.6,142.1h1.8v6.2h0c0.4-1.2,1.5-1.9,2.7-1.9c3.2,0,3.6,4.4,3.6,7.3c0,3.9-1.1,7.3-3.8,7.3
			c-1.3,0-2.3-1-2.5-2.1h0v1.7h-1.8V142.1z M611.7,159.1c1.7,0,2.1-2.3,2.1-5.4c0-3.3-0.4-5.4-2.1-5.4c-2,0-2.4,2.7-2.4,5.4
			C609.3,156.5,609.7,159.1,611.7,159.1z"/>
		<path class="st3" d="M617.8,142.1h1.8v18.5h-1.8V142.1z"/>
		<path class="st3" d="M623.7,153.9c0,2.1,0,5.3,2.3,5.3c1.8,0,2-2.2,2-3.2h1.8c0,1.5-0.7,4.9-3.9,4.9c-2.9,0-4.1-2.4-4.1-7.1
			c0-3.5,0.6-7.5,4.2-7.5c3.6,0,3.9,3.7,3.9,6.7v0.9H623.7z M628,152.2v-0.8c0-1.6-0.4-3.4-2-3.4c-1.9,0-2.2,2.8-2.2,3.6v0.5H628z"
			/>
		<path class="st3" d="M632.5,142.7h1.8v4h2v1.7h-2v8.9c0,1.1,0.2,1.6,1.2,1.6c0.4,0,0.6-0.1,0.8-0.1v1.8c-0.2,0.1-0.7,0.2-1.5,0.2
			c-1.9,0-2.4-0.9-2.4-2.7v-9.6h-1.7v-1.7h1.7V142.7z"/>
		<path class="st3" d="M642.6,150.8c0-1.8-0.4-2.7-1.7-2.7c-0.6,0-1.9,0.2-1.9,2.1c0,1.6,1.4,1.9,2.9,2.5c1.4,0.6,2.9,1.2,2.9,3.9
			c0,2.9-1.6,4.3-3.8,4.3c-4,0-4-3.5-4-4.9h1.8c0,1.7,0.4,3.2,2.2,3.2c0.6,0,2-0.3,2-2.3c0-1.9-1.4-2.3-2.9-2.8
			c-1.4-0.6-2.9-1.1-2.9-3.9c0-2.6,1.7-3.8,3.7-3.8c3.4,0,3.5,2.8,3.6,4.4H642.6z"/>
	</g>
	<g>
		<path class="st3" d="M602.4,121.5h1.8v1.6h0c0.5-1.3,1.7-2,2.8-2c1.4,0,2.2,0.6,2.5,2.2c0.5-1.2,1.6-2.2,2.8-2.2
			c3.1,0,3.1,2.8,3.1,4.4v9.8h-1.8v-9.6c0-1.1-0.1-2.8-1.6-2.8c-0.9,0-2.2,0.6-2.2,2.8v9.6H608v-9.6c0-1.1-0.1-2.8-1.6-2.8
			c-0.9,0-2.2,0.6-2.2,2.8v9.6h-1.8V121.5z"/>
		<path class="st3" d="M625.8,134.5c0,4.1-1.6,5.6-4,5.6c-0.7,0-3.6,0-3.9-3.5h1.8c0.1,1.3,0.9,1.8,1.9,1.8c2.4,0,2.3-2.1,2.3-3.1
			v-1.8h0c-0.4,1.2-1.5,1.9-2.7,1.9c-3.4,0-3.6-5.1-3.6-6.9c0-3.8,0.9-7.3,3.8-7.3c1.3,0,2.3,1,2.5,2.1h0v-1.8h1.8V134.5z
			 M619.5,128.5c0,2.3,0.3,5.1,2.1,5.1c2,0,2.4-2.2,2.4-5.1c0-2.7-0.4-5.4-2.4-5.4C620,123,619.5,125.2,619.5,128.5z"/>
	</g>
	<g>
		<path class="st3" d="M591.8,117.6h6.7v2h-5.3l-0.6,5.3l0,0.1c0.6-0.9,1.6-1.4,2.6-1.4c2.3,0,3.8,2.2,3.8,6c0,3.4-1.2,6.3-4.4,6.3
			c-3.6,0-4.1-3.6-4.1-5h1.9c0,1,0.3,3.3,2.3,3.3c2.1,0,2.5-2.9,2.5-4.7c0-2-0.6-4.1-2.5-4.1c-1.3,0-2.1,1.3-2.1,1.8l-1.6-0.1
			L591.8,117.6z"/>
	</g>
</g>
<text transform="matrix(1 0 0 1 306.2034 115.1854)" class="st0 st4 st5">®</text>
</svg>
